HIERARCHY
ROOT Hips
{
	OFFSET -8.252563 88.092789 49.943336
	CHANNELS 6 Xposition Yposition Zposition Xrotation Yrotation Zrotation
	JOINT LeftThigh
	{
		OFFSET 5.621557 2.866440 -4.311310
		CHANNELS 6 Xposition Yposition Zposition Xrotation Yrotation Zrotation
		JOINT LeftShin
		{
			OFFSET 3.478297 -38.761547 -12.114685
			CHANNELS 6 Xposition Yposition Zposition Xrotation Yrotation Zrotation
			JOINT LeftFoot
			{
				OFFSET 0.126545 -36.930054 -17.469318
				CHANNELS 6 Xposition Yposition Zposition Xrotation Yrotation Zrotation
				JOINT LeftToe
				{
					OFFSET 4.701186 -12.892839 0.471922
					CHANNELS 6 Xposition Yposition Zposition Xrotation Yrotation Zrotation
					JOINT LeftToeTip
					{
						OFFSET 5.073774 -2.401292 4.372089
						CHANNELS 6 Xposition Yposition Zposition Xrotation Yrotation Zrotation
						End Site
						{
							OFFSET -5.057212 1.305164 -4.831739
						}
					}
				}
			}
		}
	}
	JOINT RightThigh
	{
		OFFSET -5.621558 -2.866455 4.311302
		CHANNELS 6 Xposition Yposition Zposition Xrotation Yrotation Zrotation
		JOINT RightShin
		{
			OFFSET 7.158331 -38.335041 11.853462
			CHANNELS 6 Xposition Yposition Zposition Xrotation Yrotation Zrotation
			JOINT RightFoot
			{
				OFFSET 0.220285 -39.641003 -9.877617
				CHANNELS 6 Xposition Yposition Zposition Xrotation Yrotation Zrotation
				JOINT RightToe
				{
					OFFSET 2.612350 -6.028744 12.057335
					CHANNELS 6 Xposition Yposition Zposition Xrotation Yrotation Zrotation
					JOINT RightToeTip
					{
						OFFSET 1.453042 -1.184429 6.863708
						CHANNELS 6 Xposition Yposition Zposition Xrotation Yrotation Zrotation
						End Site
						{
							OFFSET -1.455931 0.000000 -6.964546
						}
					}
				}
			}
		}
	}
	JOINT Spine1
	{
		OFFSET -2.538840 8.183296 2.130344
		CHANNELS 6 Xposition Yposition Zposition Xrotation Yrotation Zrotation
		JOINT Spine2
		{
			OFFSET -0.106750 5.572006 4.501976
			CHANNELS 6 Xposition Yposition Zposition Xrotation Yrotation Zrotation
			JOINT Spine3
			{
				OFFSET -0.188573 5.116928 5.010777
				CHANNELS 6 Xposition Yposition Zposition Xrotation Yrotation Zrotation
				JOINT Spine4
				{
					OFFSET -0.435960 7.790688 9.244507
					CHANNELS 6 Xposition Yposition Zposition Xrotation Yrotation Zrotation
					JOINT LeftShoulder
					{
						OFFSET 5.509731 10.360497 6.886551
						CHANNELS 6 Xposition Yposition Zposition Xrotation Yrotation Zrotation
						JOINT LeftArm
						{
							OFFSET 6.990612 8.532051 -6.589844
							CHANNELS 6 Xposition Yposition Zposition Xrotation Yrotation Zrotation
							JOINT LeftForeArm
							{
								OFFSET -0.359546 -15.336548 -19.263226
								CHANNELS 6 Xposition Yposition Zposition Xrotation Yrotation Zrotation
								JOINT LeftHand
								{
									OFFSET 3.797058 -24.694489 -10.538315
									CHANNELS 6 Xposition Yposition Zposition Xrotation Yrotation Zrotation
									JOINT LeftFinger1Metacarpal
									{
										OFFSET 0.952128 -3.104218 0.717697
										CHANNELS 6 Xposition Yposition Zposition Xrotation Yrotation Zrotation
										JOINT LeftFinger1Proximal
										{
											OFFSET -0.948880 -3.647713 -0.052422
											CHANNELS 6 Xposition Yposition Zposition Xrotation Yrotation Zrotation
											JOINT LeftFinger1Distal
											{
												OFFSET -0.395391 -2.742805 -0.711678
												CHANNELS 6 Xposition Yposition Zposition Xrotation Yrotation Zrotation
												JOINT LeftFinger1Tip
												{
													OFFSET -0.505010 -3.098587 -0.909401
													CHANNELS 6 Xposition Yposition Zposition Xrotation Yrotation Zrotation
													End Site
													{
														OFFSET 0.505006 3.098579 0.909405
													}
												}
											}
										}
									}
									JOINT LeftFinger2Metacarpal
									{
										OFFSET 0.431695 -2.901161 -0.404774
										CHANNELS 6 Xposition Yposition Zposition Xrotation Yrotation Zrotation
										JOINT LeftFinger2Proximal
										{
											OFFSET 0.100470 -4.626656 -2.464405
											CHANNELS 6 Xposition Yposition Zposition Xrotation Yrotation Zrotation
											JOINT LeftFinger2Medial
											{
												OFFSET -1.990765 -3.686241 -1.425308
												CHANNELS 6 Xposition Yposition Zposition Xrotation Yrotation Zrotation
												JOINT LeftFinger2Distal
												{
													OFFSET -2.096781 -1.736168 -0.037136
													CHANNELS 6 Xposition Yposition Zposition Xrotation Yrotation Zrotation
													JOINT LeftFinger2Tip
													{
														OFFSET -2.363409 -1.119179 0.529594
														CHANNELS 6 Xposition Yposition Zposition Xrotation Yrotation Zrotation
														End Site
														{
															OFFSET 2.363400 1.119164 -0.529652
														}
													}
												}
											}
										}
									}
									JOINT LeftFinger3Metacarpal
									{
										OFFSET -0.013582 -2.424370 -1.188118
										CHANNELS 6 Xposition Yposition Zposition Xrotation Yrotation Zrotation
										JOINT LeftFinger3Proximal
										{
											OFFSET -0.292131 -4.089592 -3.086746
											CHANNELS 6 Xposition Yposition Zposition Xrotation Yrotation Zrotation
											JOINT LeftFinger3Medial
											{
												OFFSET -2.514203 -3.554253 -1.122395
												CHANNELS 6 Xposition Yposition Zposition Xrotation Yrotation Zrotation
												JOINT LeftFinger3Distal
												{
													OFFSET -2.559383 -1.403343 0.523392
													CHANNELS 6 Xposition Yposition Zposition Xrotation Yrotation Zrotation
													JOINT LeftFinger3Tip
													{
														OFFSET -2.547571 -0.437202 1.242809
														CHANNELS 6 Xposition Yposition Zposition Xrotation Yrotation Zrotation
														End Site
														{
															OFFSET 2.547564 0.437202 -1.242828
														}
													}
												}
											}
										}
									}
									JOINT LeftFinger4Metacarpal
									{
										OFFSET -0.464840 -1.818008 -1.909897
										CHANNELS 6 Xposition Yposition Zposition Xrotation Yrotation Zrotation
										JOINT LeftFinger4Proximal
										{
											OFFSET -0.870580 -3.411415 -3.394688
											CHANNELS 6 Xposition Yposition Zposition Xrotation Yrotation Zrotation
											JOINT LeftFinger4Medial
											{
												OFFSET -2.579310 -3.277649 -0.781071
												CHANNELS 6 Xposition Yposition Zposition Xrotation Yrotation Zrotation
												JOINT LeftFinger4Distal
												{
													OFFSET -2.327353 -1.153633 0.861252
													CHANNELS 6 Xposition Yposition Zposition Xrotation Yrotation Zrotation
													JOINT LeftFinger4Tip
													{
														OFFSET -2.154614 -0.195053 1.555210
														CHANNELS 6 Xposition Yposition Zposition Xrotation Yrotation Zrotation
														End Site
														{
															OFFSET 2.154595 0.195023 -1.555233
														}
													}
												}
											}
										}
									}
									JOINT LeftFinger5Metacarpal
									{
										OFFSET -0.840448 -1.117714 -2.396435
										CHANNELS 6 Xposition Yposition Zposition Xrotation Yrotation Zrotation
										JOINT LeftFinger5Proximal
										{
											OFFSET -1.413510 -2.647697 -3.466747
											CHANNELS 6 Xposition Yposition Zposition Xrotation Yrotation Zrotation
											JOINT LeftFinger5Medial
											{
												OFFSET -2.054634 -2.775925 -1.010506
												CHANNELS 6 Xposition Yposition Zposition Xrotation Yrotation Zrotation
												JOINT LeftFinger5Distal
												{
													OFFSET -1.815994 -1.289940 0.392685
													CHANNELS 6 Xposition Yposition Zposition Xrotation Yrotation Zrotation
													JOINT LeftFinger5Tip
													{
														OFFSET -1.900167 -0.771187 1.050133
														CHANNELS 6 Xposition Yposition Zposition Xrotation Yrotation Zrotation
														End Site
														{
															OFFSET 1.900158 0.771202 -1.050140
														}
													}
												}
											}
										}
									}
								}
							}
						}
					}
					JOINT Neck
					{
						OFFSET -0.689050 12.313828 14.611641
						CHANNELS 6 Xposition Yposition Zposition Xrotation Yrotation Zrotation
						JOINT Head
						{
							OFFSET -1.145237 7.525696 6.269104
							CHANNELS 6 Xposition Yposition Zposition Xrotation Yrotation Zrotation
							JOINT HeadVertex
							{
								OFFSET -2.228642 12.906784 7.099289
								CHANNELS 6 Xposition Yposition Zposition Xrotation Yrotation Zrotation
								End Site
								{
									OFFSET -2.228645 12.906784 7.099289
								}
							}
						}
					}
					JOINT RightShoulder
					{
						OFFSET -3.774653 2.883545 12.749847
						CHANNELS 6 Xposition Yposition Zposition Xrotation Yrotation Zrotation
						JOINT RightArm
						{
							OFFSET -10.378578 -4.696877 5.942612
							CHANNELS 6 Xposition Yposition Zposition Xrotation Yrotation Zrotation
							JOINT RightForeArm
							{
								OFFSET 1.271999 -22.534531 9.848259
								CHANNELS 6 Xposition Yposition Zposition Xrotation Yrotation Zrotation
								JOINT RightHand
								{
									OFFSET 5.473150 -17.273109 20.173660
									CHANNELS 6 Xposition Yposition Zposition Xrotation Yrotation Zrotation
									JOINT RightFinger1Metacarpal
									{
										OFFSET 1.280636 2.109764 2.228584
										CHANNELS 6 Xposition Yposition Zposition Xrotation Yrotation Zrotation
										JOINT RightFinger1Proximal
										{
											OFFSET 0.340202 0.417580 3.730835
											CHANNELS 6 Xposition Yposition Zposition Xrotation Yrotation Zrotation
											JOINT RightFinger1Distal
											{
												OFFSET -1.167887 -0.218330 2.602745
												CHANNELS 6 Xposition Yposition Zposition Xrotation Yrotation Zrotation
												JOINT RightFinger1Tip
												{
													OFFSET -2.056322 -0.928093 2.365051
													CHANNELS 6 Xposition Yposition Zposition Xrotation Yrotation Zrotation
													End Site
													{
														OFFSET 2.056326 0.928093 -2.365036
													}
												}
											}
										}
									}
									JOINT RightFinger2Metacarpal
									{
										OFFSET 0.150452 1.624046 2.471161
										CHANNELS 6 Xposition Yposition Zposition Xrotation Yrotation Zrotation
										JOINT RightFinger2Proximal
										{
											OFFSET -1.533377 2.171448 4.519211
											CHANNELS 6 Xposition Yposition Zposition Xrotation Yrotation Zrotation
											JOINT RightFinger2Medial
											{
												OFFSET -1.307508 -0.272392 4.218903
												CHANNELS 6 Xposition Yposition Zposition Xrotation Yrotation Zrotation
												JOINT RightFinger2Distal
												{
													OFFSET -0.079306 -1.111702 2.483948
													CHANNELS 6 Xposition Yposition Zposition Xrotation Yrotation Zrotation
													JOINT RightFinger2Tip
													{
														OFFSET 0.413235 -1.599228 2.095337
														CHANNELS 6 Xposition Yposition Zposition Xrotation Yrotation Zrotation
														End Site
														{
															OFFSET -0.413292 1.599236 -2.095322
														}
													}
												}
											}
										}
									}
									JOINT RightFinger3Metacarpal
									{
										OFFSET -0.700880 1.071243 2.377083
										CHANNELS 6 Xposition Yposition Zposition Xrotation Yrotation Zrotation
										JOINT RightFinger3Proximal
										{
											OFFSET -2.239307 1.631180 4.320068
											CHANNELS 6 Xposition Yposition Zposition Xrotation Yrotation Zrotation
											JOINT RightFinger3Medial
											{
												OFFSET -1.325949 -0.365685 4.280388
												CHANNELS 6 Xposition Yposition Zposition Xrotation Yrotation Zrotation
												JOINT RightFinger3Distal
												{
													OFFSET -0.043438 -1.217682 2.703537
													CHANNELS 6 Xposition Yposition Zposition Xrotation Yrotation Zrotation
													JOINT RightFinger3Tip
													{
														OFFSET 0.508005 -1.693489 2.258286
														CHANNELS 6 Xposition Yposition Zposition Xrotation Yrotation Zrotation
														End Site
														{
															OFFSET -0.508026 1.693489 -2.258286
														}
													}
												}
											}
										}
									}
									JOINT RightFinger4Metacarpal
									{
										OFFSET -1.516529 0.455215 2.159111
										CHANNELS 6 Xposition Yposition Zposition Xrotation Yrotation Zrotation
										JOINT RightFinger4Proximal
										{
											OFFSET -2.660131 0.843758 4.016357
											CHANNELS 6 Xposition Yposition Zposition Xrotation Yrotation Zrotation
											JOINT RightFinger4Medial
											{
												OFFSET -1.281378 -0.320618 4.032539
												CHANNELS 6 Xposition Yposition Zposition Xrotation Yrotation Zrotation
												JOINT RightFinger4Distal
												{
													OFFSET -0.139799 -0.939659 2.566452
													CHANNELS 6 Xposition Yposition Zposition Xrotation Yrotation Zrotation
													JOINT RightFinger4Tip
													{
														OFFSET 0.325462 -1.327354 2.287201
														CHANNELS 6 Xposition Yposition Zposition Xrotation Yrotation Zrotation
														End Site
														{
															OFFSET -0.325499 1.327377 -2.287186
														}
													}
												}
											}
										}
									}
									JOINT RightFinger5Metacarpal
									{
										OFFSET -2.120838 -0.146118 1.783012
										CHANNELS 6 Xposition Yposition Zposition Xrotation Yrotation Zrotation
										JOINT RightFinger5Proximal
										{
											OFFSET -2.866573 0.038078 3.578804
											CHANNELS 6 Xposition Yposition Zposition Xrotation Yrotation Zrotation
											JOINT RightFinger5Medial
											{
												OFFSET -1.307396 -1.048714 3.184280
												CHANNELS 6 Xposition Yposition Zposition Xrotation Yrotation Zrotation
												JOINT RightFinger5Distal
												{
													OFFSET -0.067364 -1.194489 1.919510
													CHANNELS 6 Xposition Yposition Zposition Xrotation Yrotation Zrotation
													JOINT RightFinger5Tip
													{
														OFFSET 0.458418 -1.470741 1.713165
														CHANNELS 6 Xposition Yposition Zposition Xrotation Yrotation Zrotation
														End Site
														{
															OFFSET -0.458426 1.470726 -1.713165
														}
													}
												}
											}
										}
									}
								}
							}
						}
					}
				}
			}
		}
	}
}
MOTION
Frames: 2
Frame Time: 0.010000
0.000005 88.689240 0.000011 -41.948385 -34.342048 -27.017172 5.621555 2.866457 -4.311304 15.745749 12.559371 -1.033620 3.478291 -38.761555 -12.114697 -7.815427 -2.355281 4.184867 0.126550 -36.930065 -17.469313 -24.018519 -16.980743 10.151183 4.701180 -12.892829 0.471908 28.935994 -2.031581 -25.791505 5.073773 -2.401292 4.372090 -0.000000 0.000000 0.000001 -5.621555 -2.866457 4.311300 51.891526 23.166325 -17.925116 7.158325 -38.335056 11.853450 -30.474180 -5.533848 8.672634 0.220287 -39.640995 -9.877586 13.108611 6.814033 -0.208235 2.612349 -6.028758 12.057311 0.680949 0.005860 -0.142359 1.453045 -1.184429 6.863724 -0.000000 0.000002 -0.000000 -2.538842 8.183305 2.130353 -5.431597 -0.254365 -1.162804 -0.106748 5.571978 4.501966 -5.444534 -0.254837 -1.165540 -0.188573 5.116940 5.010781 -5.448007 -0.254983 -1.166280 -0.435962 7.790693 9.244498 -0.000003 0.000002 -0.000003 5.509727 10.360496 6.886544 -0.609921 3.170340 2.102479 6.990567 8.532058 -6.589819 70.584240 -12.042120 73.218740 -0.359537 -15.336535 -19.263226 28.439275 9.116631 -5.782003 3.797049 -24.694462 -10.538306 -13.319706 -7.710933 8.383802 0.952127 -3.104207 0.717710 6.447854 14.804754 24.759770 -0.948899 -3.647726 -0.052452 21.979694 18.338788 -5.238656 -0.395382 -2.742810 -0.711673 -1.772135 -0.014154 0.980541 -0.505020 -3.098609 -0.909404 -0.000001 -0.000002 -0.000001 0.431697 -2.901136 -0.404764 -0.000047 0.000000 -0.000008 0.100464 -4.626678 -2.464395 17.323713 -9.904610 21.454321 -1.990757 -3.686240 -1.425292 14.172975 -11.850648 22.822205 -2.096790 -1.736174 -0.037127 8.888672 -8.541627 14.825913 -2.363417 -1.119209 0.529590 -0.000000 0.000001 0.000002 -0.013569 -2.424375 -1.188118 0.000007 0.000000 -0.000001 -0.292134 -4.089596 -3.086749 21.116568 -15.129144 27.771722 -2.514206 -3.554248 -1.122381 19.956937 -14.761217 28.560591 -2.559389 -1.403350 0.523391 12.406702 -10.973942 18.345967 -2.547578 -0.437233 1.242805 -0.000000 0.000002 0.000000 -0.464830 -1.817999 -1.909895 0.895966 -3.617253 0.212294 -0.870585 -3.411414 -3.394669 22.724564 -18.826460 28.526189 -2.579319 -3.277638 -0.781080 24.511222 -16.012403 28.806391 -2.327347 -1.153677 0.861220 15.326637 -12.078318 18.298376 -2.154624 -0.195075 1.555190 -0.000001 -0.000001 0.000001 -0.840457 -1.117700 -2.396432 1.623985 -7.662926 0.305719 -1.413519 -2.647712 -3.466739 14.448857 -19.149581 21.810346 -2.054655 -2.775930 -1.010504 21.088375 -16.135011 21.070743 -1.815997 -1.289909 0.392691 13.284993 -11.637199 13.272747 -1.900169 -0.771193 1.050137 -0.000002 0.000000 0.000001 -0.689045 12.313802 14.611613 8.307185 13.699677 5.753968 -1.145247 7.525704 6.269106 8.307165 13.699695 5.753967 -2.228650 12.906789 7.099283 -0.000003 0.000002 0.000002 -3.774650 2.883531 12.749820 8.939289 -6.710275 -0.588589 -10.378574 -4.696872 5.942606 -9.406799 9.673340 -53.522633 1.271996 -22.534534 9.848289 26.517948 18.271405 -34.211516 5.473152 -17.273125 20.173674 38.280403 44.256942 40.230241 1.280624 2.109751 2.228601 -26.295277 1.034819 39.389062 0.340201 0.417573 3.730788 -14.749981 0.599968 -8.650063 -1.167876 -0.218319 2.602761 -11.636817 16.504356 -2.322964 -2.056332 -0.928098 2.365034 0.000003 -0.000003 0.000005 0.150439 1.624057 2.471168 -0.000076 -0.000041 0.000021 -1.533356 2.171427 4.519198 -22.314525 -8.372270 -6.907586 -1.307506 -0.272411 4.218900 -20.919741 -12.768801 -9.512447 -0.079258 -1.111723 2.483925 -13.639511 -8.908942 -5.791067 0.413219 -1.599217 2.095333 -0.000002 0.000000 -0.000001 -0.700886 1.071257 2.377095 -0.000018 -0.000098 -0.000036 -2.239326 1.631187 4.320059 -22.583085 -8.147762 -9.831943 -1.325939 -0.365682 4.280376 -20.023565 -13.591396 -9.611108 -0.043438 -1.217659 2.703526 -13.017399 -9.444156 -5.840738 0.508002 -1.693487 2.258267 0.000003 0.000000 0.000001 -1.516531 0.455217 2.159134 -0.913298 -2.278182 -2.828399 -2.660119 0.843752 4.016373 -19.784746 -6.562297 -9.467170 -1.281367 -0.320602 4.032533 -15.924246 -12.794077 -7.710449 -0.139800 -0.939646 2.566457 -10.369462 -8.773427 -4.716935 0.325481 -1.327372 2.287191 0.000001 0.000003 -0.000002 -2.120834 -0.146118 1.783018 -1.878641 -4.532841 -6.184608 -2.866591 0.038094 3.578786 -26.957245 2.138072 -16.160964 -1.307364 -1.048680 3.184258 -14.823659 -15.125502 -12.904211 -0.067357 -1.194515 1.919520 -9.430058 -10.462038 -8.102708 0.458429 -1.470750 1.713164 -0.000000 -0.000001 -0.000000 
-4.129156 88.529785 24.983652 -17.730056 -19.449338 -9.442399 5.621557 2.866454 -4.311296 9.726432 6.665303 -1.300647 3.478292 -38.761562 -12.114700 -7.680578 -2.309446 4.114768 0.126547 -36.930061 -17.469318 -10.369299 -7.278120 5.093940 4.701183 -12.892833 0.471912 14.580026 0.641595 -13.019216 5.073775 -2.401292 4.372092 -0.000001 0.000000 0.000000 -5.621553 -2.866458 4.311306 24.734488 13.503050 -6.176895 7.158326 -38.335045 11.853445 -15.970253 -2.304946 4.887248 0.220289 -39.640991 -9.877584 6.876547 3.477531 0.002468 2.612350 -6.028758 12.057324 0.340764 0.003224 -0.071228 1.453045 -1.184429 6.863724 -0.000000 0.000002 0.000000 -2.538841 8.183312 2.130356 -2.715981 -0.141066 -0.579872 -0.106750 5.571976 4.501967 -2.722465 -0.141244 -0.581216 -0.188571 5.116911 5.010770 -2.724193 -0.141215 -0.581565 -0.435959 7.790671 9.244504 -0.000005 -0.000001 -0.000009 5.509730 10.360491 6.886530 -0.299989 1.589061 1.042559 6.990580 8.532080 -6.589808 32.861580 -17.775571 34.239318 -0.359554 -15.336525 -19.263226 14.018470 4.928837 -2.334256 3.797041 -24.694483 -10.538300 -6.803667 -3.618452 4.442025 0.952127 -3.104204 0.717720 4.009949 7.056618 12.485958 -0.948885 -3.647709 -0.052452 10.640389 9.416410 -1.694351 -0.395400 -2.742825 -0.711672 -0.881140 -0.003244 0.487580 -0.505004 -3.098588 -0.909408 0.000001 0.000001 0.000001 0.431701 -2.901138 -0.404761 -0.000023 0.000001 -0.000007 0.100456 -4.626693 -2.464405 8.203816 -5.739627 10.229077 -1.990769 -3.686221 -1.425277 6.421317 -6.603431 10.930507 -2.096779 -1.736176 -0.037123 4.135967 -4.540215 7.195400 -2.363411 -1.119197 0.529584 0.000004 0.000001 0.000001 -0.013581 -2.424379 -1.188111 0.000001 -0.000006 -0.000002 -0.292140 -4.089578 -3.086751 9.571749 -8.815173 12.974008 -2.514220 -3.554251 -1.122375 8.931834 -8.598915 13.468757 -2.559382 -1.403339 0.523388 5.717727 -5.969593 8.810485 -2.547568 -0.437218 1.242803 0.000000 0.000000 0.000000 -0.464847 -1.818019 -1.909880 0.446083 -1.809036 0.099019 -0.870583 -3.411418 -3.394683 10.030046 -10.780106 13.015377 -2.579322 -3.277643 -0.781083 11.075404 -9.517695 13.349927 -2.327357 -1.153643 0.861238 7.117939 -6.636425 8.671707 -2.154612 -0.195054 1.555198 0.000001 -0.000002 -0.000001 -0.840452 -1.117716 -2.396420 0.805051 -3.832551 0.125297 -1.413486 -2.647688 -3.466733 6.165386 -10.223063 10.105599 -2.054649 -2.775927 -1.010501 9.665623 -9.014970 9.656315 -1.815994 -1.289901 0.392674 6.259180 -6.193534 6.252774 -1.900160 -0.771187 1.050114 -0.000000 -0.000003 -0.000001 -0.689043 12.313800 14.611605 4.282319 6.748398 3.107650 -1.145250 7.525719 6.269126 4.283326 6.749689 3.103681 -2.228653 12.906818 7.099294 -0.000003 -0.000001 -0.000000 -3.774648 2.883514 12.749823 4.450410 -3.339172 -0.431363 -10.378588 -4.696867 5.942601 -5.853473 3.751118 -26.904276 1.272022 -22.534546 9.848274 11.674885 11.080491 -15.779520 5.473137 -17.273117 20.173664 21.895290 19.031943 22.781363 1.280621 2.109751 2.228611 -13.076413 2.831960 19.626660 0.340198 0.417559 3.730810 -7.429393 0.101524 -4.374341 -1.167879 -0.218304 2.602743 -5.877590 8.244257 -1.580909 -2.056328 -0.928083 2.365053 0.000003 -0.000039 0.000001 0.150450 1.624055 2.471164 -0.000038 -0.000020 0.000012 -1.533359 2.171435 4.519221 -10.965093 -4.499676 -3.024206 -1.307522 -0.272385 4.218910 -10.116549 -6.810110 -4.132763 -0.079259 -1.111713 2.483909 -6.680153 -4.622543 -2.617857 0.413218 -1.599212 2.095344 0.000001 0.000045 -0.000067 -0.700879 1.071255 2.377095 -0.000009 -0.000049 -0.000015 -2.239325 1.631181 4.320062 -10.544316 -5.089556 -4.478836 -1.325945 -0.365679 4.280385 -9.618383 -7.189419 -4.154405 -0.043444 -1.217680 2.703527 -6.344046 -4.871768 -2.631120 0.507992 -1.693490 2.258291 0.000001 -0.000011 -0.000005 -1.516519 0.455225 2.159128 -0.442491 -1.144714 -1.409376 -2.660141 0.843767 4.016382 -10.246675 -3.072281 -4.451293 -1.281372 -0.320610 4.032515 -7.664662 -6.638684 -3.367676 -0.139824 -0.939629 2.566469 -5.059434 -4.476648 -2.143374 0.325460 -1.327366 2.287218 0.000011 0.000007 0.000004 -2.120836 -0.146111 1.783024 -0.877359 -2.291751 -3.071270 -2.866590 0.038071 3.578774 -13.610827 0.139212 -8.235575 -1.307367 -1.048684 3.184258 -6.934271 -7.995695 -5.916371 -0.067362 -1.194504 1.919526 -4.521924 -5.411091 -3.828771 0.458413 -1.470760 1.713155 -0.000004 -0.000012 -0.000011 
